<svg xmlns="http://www.w3.org/2000/svg" viewBox="0 0 21.52726 16.21789"><title>camera-icon-uc-santa-barbara-2</title><g id="ICONS"><path d="M4.96379,1.72917,8.30452,1.731,8.30543.76962H8.30452A.32862.32862,0,0,0,8.20793.53719L8.19909.52774a.33086.33086,0,0,0-.22365-.089L5.29439.43785a.32971.32971,0,0,0-.2331.0969l.00092.00091a.32515.32515,0,0,0-.09842.23218v.96133ZM.93018,14.27822H.7696a.76925.76925,0,0,1-.54412-.22548L.2123,14.039A.76739.76739,0,0,1,0,13.50947V4.44039A.764.764,0,0,1,.22548,3.898l.00084-.00091A.76881.76881,0,0,1,.7696,3.67163H.93018V3.04974A1.31125,1.31125,0,0,1,1.3163,2.1198l.00084-.00092h.00092l.00152-.00274a1.3145,1.3145,0,0,1,.92873-.38423H4.52594L4.52655.76784A.76841.76841,0,0,1,4.75111.22456H4.752A.7677.7677,0,0,1,5.29439,0L7.97544.00091a.77483.77483,0,0,1,.52873.21177l.01455.01371A.76774.76774,0,0,1,8.7442.76962H8.74328l-.00091.96229H20.20913a1.32121,1.32121,0,0,1,1.31813,1.31783V14.90011a1.31413,1.31413,0,0,1-.387.93025l-.00091.00153a1.31259,1.31259,0,0,1-.93025.386H2.24831A1.31809,1.31809,0,0,1,.93018,14.90011v-.62189ZM.7696,13.83854H4.15085a.32854.32854,0,0,0,.2334-.09659.3326.3326,0,0,0,.09659-.23248V4.44039a.33559.33559,0,0,0-.09659-.2331l-.00876-.00853h0l-.00343-.00183h0l-.00267-.00335h0l-.00251-.00183V4.19084L4.36414,4.189l-.00061-.00066-.00274-.00178h0l-.00244-.00274h0L4.3547,4.18226V4.18139l-.00244-.00183-.00092-.00091-.00182-.00152-.00146-.001-.0019-.00087-.00182-.00183-.00092-.00061L4.342,4.172l-.0019-.00188L4.33824,4.1692l-.00061-.00091-.00175-.00091L4.334,4.16585l-.00244-.00091-.00092-.001L4.3288,4.16311,4.32788,4.1622l-.00244-.00153-.00091-.00091-.00244-.00092H4.32118L4.31844,4.157l-.00085-.00061-.00586-.00366h0l-.00365-.00244h0l-.00336-.00183h0l-.00335-.00182h0l-.00365-.00153h0l-.00336-.00091V4.1433L4.291,4.14239l-.00084-.00091-.00281-.00061L4.28644,4.14,4.28408,4.139l-.001-.00091H4.28065l-.00091-.00092L4.277,4.1363l-.00092-.00061-.00243-.00092-.00176-.00091L4.27,4.133,4.26847,4.132H4.26664L4.2642,4.13112l-.00183-.00066-.00183-.00087H4.259l-.00274-.00182H4.25293L4.252,4.12685l-.00335-.00152h0l-.00366-.001h0L4.24165,4.1235H4.24074l-.00335-.00091h0l-.00427-.00092h0l-.00366-.00091h0l-.00328-.00153H4.22185l-.00092-.001-.00274-.00086H4.21758L4.214,4.11649H4.20966l-.00244-.00091L4.20539,4.115H4.20113L4.1993,4.11405H4.1932l-.00243-.00091H4.18284l-.00236-.001H4.17675l-.00152-.00087H.7696a.32721.32721,0,0,0-.33.32908v9.06908a.32585.32585,0,0,0,.08806.22456l.0086.00792a.32523.32523,0,0,0,.23333.09659Zm1.47871,1.94H20.20913a.88017.88017,0,0,0,.621-.25655l.00091-.00092a.88126.88126,0,0,0,.25747-.621V3.04974a.88167.88167,0,0,0-.87936-.87815H2.24831a.87659.87659,0,0,0-.62121.25656l-.00068.00152a.87154.87154,0,0,0-.25748.62007v.62189H4.18048l.00846.00091h.01127l.00769.00087.00176.001h.01043l.00694.00092h.00152l.00792.00091.00244.00061.007.00091h.00274l.00579.00092h.00366l.00609.00087.00335.001.00518.00091L4.277,3.682l.00609.00091.00335.00092.00518.00091.00464.00087.0042.001.00518.00061.00426.00091.00518.00092.00336.00091.00525.00092.00419.00152.00518.00091.00366.00092L4.342,3.696l.00328.00091.00609.00152.00336.00092.00609.00183.00274.00091.00586.00152h.00267l.007.00275h.00152l.00708.00335h.00176l.00762.00274H4.398l.008.00244.00053.00091.00793.00244h.00091l.00762.00366h.00091l.00792.00243.00061.00087.00793.0034h0l.00853.00366h0l.00891.00335h0l.00754.00365h.00092l.00761.00422h.00092l.007.0034.00092.00091.0067.00336.0019.00091.0061.00274L4.5,3.75634l.00579.00274.00182.00152.0061.00274.00244.00092.00518.00335.00365.00183.00427.00244.00335.00182.00434.00244.00358.00274.00427.00244.00335.00178.00427.00279.00365.00153.00427.00274.00426.00244.00335.00365.007.00427.00427.00244.00366.00274.00426.00244.00244.00274.00525.00244.00267.00274.00518.00335.00152.00183.0061.00335.00183.00183.00518.00426.0019.00092.0051.00426.00153.00183L4.632,3.842l.00092.00091.00609.00518.00091.00092.0061.00421.00068.00157.00609.00453.00085.00065.00609.00518h.00091l.0061.0061.00061.00091.00609.0061.007.00609h0l.01371.0128a.767.767,0,0,1,.22548.54328v9.06908a.76984.76984,0,0,1-.76876.76875H1.36894v.62189a.88024.88024,0,0,0,.87937.87845ZM13.90581,4.87672a4.10088,4.10088,0,1,0,2.89678,1.20234,4.08672,4.08672,0,0,0-2.89678-1.20234ZM10.698,5.76613a4.53606,4.53606,0,1,0,3.20781-1.32666A4.51911,4.51911,0,0,0,10.698,5.76613ZM13.90672,3.5138h0V3.51288A5.46259,5.46259,0,0,0,8.441,8.97249h.00092V8.9731H8.441a5.46279,5.46279,0,0,0,5.46052,5.46479h0A5.4611,5.4611,0,0,0,19.366,8.97823h0V8.97767h0a5.46266,5.46266,0,0,0-5.4593-5.46479V3.5138Zm0-.43877A5.90012,5.90012,0,0,0,8.00408,8.97249H8.00317V8.9731h.00091a5.89857,5.89857,0,0,0,5.89746,5.90264v.00091h0v-.00091a5.89908,5.89908,0,0,0,5.90264-5.89751h.00061V8.97767h-.00061A5.90063,5.90063,0,0,0,13.90672,3.075Z" style="fill:#a1afba;fill-rule:evenodd"/></g></svg>