<svg xmlns="http://www.w3.org/2000/svg" viewBox="0 0 14.2201 19.44562"><title>hourglass-timer-icon-uc-santa-barbara-2</title><g id="ICONS"><path d="M10.1986,15.65821,7.09523,13.07405,4.01807,15.65821Zm-4.803-6.61412L2.143,6.356a1.28937,1.28937,0,0,1-.47868-1.01556V2.78983H.2203A.22061.22061,0,0,1,0,2.56953V.21938A.22042.22042,0,0,1,.2203,0H14a.21983.21983,0,0,1,.22007.21938V2.56953A.22.22,0,0,1,14,2.78983H12.55576V5.34047a1.31456,1.31456,0,0,1-.12249.56308,1.29452,1.29452,0,0,1-.35589.45248L8.8244,9.04409a.85134.85134,0,0,0-.2382.30131.871.871,0,0,0,.2382,1.05369l3.25366,2.688a1.28667,1.28667,0,0,1,.4777,1.01561v2.55307H14a.22022.22022,0,0,1,.22007.2203v2.35015A.21924.21924,0,0,1,14,19.44562H.2203A.21983.21983,0,0,1,0,19.22624V16.87609a.22081.22081,0,0,1,.2203-.2203h1.444V14.10272a1.3134,1.3134,0,0,1,.12279-.56309h0a1.30941,1.30941,0,0,1,.35589-.45252l3.25267-2.688a.84326.84326,0,0,0,.31963-.677.84674.84674,0,0,0-.31963-.678ZM2.42267,6.01751a.84326.84326,0,0,1-.31963-.677V2.78983H12.117V5.34047a.8748.8748,0,0,1-.08044.37569.85987.85987,0,0,1-.23919.30135L8.5456,8.70553a1.30857,1.30857,0,0,0,0,2.03208l3.25267,2.68715a.87554.87554,0,0,1,.23828.30135.88488.88488,0,0,1,.08044.37661v2.54972H2.103V14.10272a.88173.88173,0,0,1,.08044-.37661h0a.87833.87833,0,0,1,.23919-.30135l3.25266-2.68715a1.3096,1.3096,0,0,0,0-2.03208l-3.25266-2.688ZM7.11016,8.71837l4.05075-3.34682V4.79014H3.0601v.58141L7.11016,8.71837Zm4.409-3.07381a.22084.22084,0,0,0,.08051-.16941h0V4.56988a.22064.22064,0,0,0-.22037-.22029H2.8398a.22038.22038,0,0,0-.21938.22029v.90527a.21614.21614,0,0,0,.089.17611L6.97,9.17172a.22.22,0,0,0,.28,0l.00092-.00087.00068-.00061,4.26755-3.52568Zm2.26148,11.45H.43968v1.91169h13.341V17.09456Zm0-16.65488H.43968V2.35106h13.341V.43968Zm-6.54617,12.181,3.69418,3.07655a.21946.21946,0,0,1-.12462.40068h-7.389V16.097a.21878.21878,0,0,1-.14077-.38666l3.67955-3.08965v.00091A.219.219,0,0,1,7.23448,12.62066Z" style="fill:#a1afba;fill-rule:evenodd"/></g></svg>