<svg xmlns="http://www.w3.org/2000/svg" viewBox="0 0 17.99891 17.99891"><title>magnifying-glass-icon-uc-santa-barbara_1</title><g id="ICONS"><path d="M11.1255,3.835A5.15552,5.15552,0,1,0,3.834,11.1255v.00091L3.835,11.1255a5.15092,5.15092,0,0,0,7.29055.00091h.00091l-.00091-.00091a5.147,5.147,0,0,0,0-7.29055Zm2.682,7.6376,3.80631,3.80752.01219.01372a1.31956,1.31956,0,0,1-.01219,1.851l-.46985.46984a1.32116,1.32116,0,0,1-1.86293,0l-.00085-.00091v.00091l-3.80729-3.80722a7.48094,7.48094,0,1,1,2.33461-2.33491ZM11.375,13.34615l-.0006.00152-.00183.00088-.00092.001a7.0501,7.0501,0,1,1,1.49181-1.33093l-.00365.00518-.01036.01127c-.05089.06033-.1036.12006-.15625.17886l-.001.00061c-.07435.08136-.1493.16-.22609.23767l-.007.007a7.103,7.103,0,0,1-1.07613.8818l-.008.00518ZM17.303,15.59087l.011.00941a.88159.88159,0,0,1-.011,1.23346l-.46985.46981a.8812.8812,0,0,1-1.24318,0h.001l-3.74666-3.74686A7.56219,7.56219,0,0,0,13.557,11.844l3.746,3.74689ZM9.61937,2.30962a5.59439,5.59439,0,0,1,1.81722,9.12667h-.00091a5.59237,5.59237,0,0,1-7.91183,0h.001A5.59586,5.59586,0,0,1,9.61937,2.30962Z" style="fill:#a1afba;fill-rule:evenodd"/></g></svg>