<svg xmlns="http://www.w3.org/2000/svg" viewBox="0 0 18.54722 24.40091"><title>pedestrian-walking-icon-UC-Santa-Barbara</title><g id="ICONS"><path d="M5.86414,23.72673l-.07031-.002a.93252.93252,0,0,1-.8584-.99658L5.307,17.73063a.923.923,0,0,1,.18653-.49267l2.11035-2.78223A.09174.09174,0,0,0,7.62,14.382l-.87646-4.21143a.08883.08883,0,0,0-.08106-.07129c-.04394.01123-.07763.02149-.09082.05567l-.50195,1.26172a.93968.93968,0,0,1-.29736.394L2.52479,14.30924a.93058.93058,0,0,1-1.13428-1.47558L4.4159,10.507,6.01014,6.5402A1.04191,1.04191,0,0,1,6.15369,6.321l.10157-.11914a.75865.75865,0,0,1,.3833-.23779L9.577,5.39128a1.24956,1.24956,0,0,1,.58936.10254l.01855.00585.0127-.00293,4.03222,1.542a.92559.92559,0,0,1,.42823.33593l2.69238,3.84424A.92308.92308,0,0,1,16.432,12.6613a.93546.93546,0,0,1-.605-.377L13.31434,8.696l-2.31885-.90332a.0887.0887,0,0,0-.09033.01514.09053.09053,0,0,0-.02979.08789l1.17432,5.62061-.0044.03173.00293.00733a.28088.28088,0,0,1,.01954.05517l1.731,4.9292,2.48633,3.314a.93429.93429,0,0,1-.18359,1.30371.9452.9452,0,0,1-1.30274-.18359l-2.56885-3.41553a.98444.98444,0,0,1-.13476-.2544l-1.62305-4.62158a.08.08,0,0,0-.09228-.06006l-.50635.09278c-.05957.01074-.125.03466-.31592.21386a1.0532,1.0532,0,0,0-.10449.15088c-.02881.04688-.05615.08936-.0791.12012L7.1576,18.12077l-.36768,4.74512A.93241.93241,0,0,1,5.86414,23.72673Zm.791-14.12793.0664.00439a.58106.58106,0,0,1,.51123.46533l.877,4.21289a.58831.58831,0,0,1-.1084.47754L5.892,17.53971a.4291.4291,0,0,0-.08593.22705L5.43445,22.7653a.43125.43125,0,0,0,.39747.46094H5.8324a.438.438,0,0,0,.4585-.397L6.64051,18.132a.6.6,0,0,1,.11865-.31348L8.975,14.8986c.01514-.02051.03272-.0498.05225-.08154a1.22837,1.22837,0,0,1,.18945-.25391,1.11562,1.11562,0,0,1,.56592-.33984l.4956-.09082a.57766.57766,0,0,1,.66553.38379l1.62354,4.62255a.47328.47328,0,0,0,.06445.12207L15.19813,22.673a.44281.44281,0,0,0,.60351.08448.43342.43342,0,0,0,.0835-.604l-2.47266-3.28857a.56167.56167,0,0,1-.08642-.16211L11.6327,13.882a1.33179,1.33179,0,0,1-.07959-.30469l-.00147.00049-1.166-5.58057a.58991.58991,0,0,1,.78662-.67236l2.27978.87256a.574.574,0,0,1,.27246.2124l2.51172,3.5874a.43045.43045,0,0,0,.28174.17139.41239.41239,0,0,0,.31592-.06444.42752.42752,0,0,0,.10742-.59816L14.24891,7.66178a.43241.43241,0,0,0-.19727-.15625L10.10779,5.99772c-.02587-.00635-.05468-.01514-.09228-.02685a2.05707,2.05707,0,0,0-.34961-.08838l-2.9248.57129a.29047.29047,0,0,0-.11768.08642l-.06836.07715c-.04785.06543-.07275.09717-.08545.11914l-1.56006,3.918a.59369.59369,0,0,1-.188.248L1.6952,13.23014a.42984.42984,0,0,0,.24218.77051.44029.44029,0,0,0,.28272-.08789l3.24707-2.49805a.43373.43373,0,0,0,.13818-.18359l.50147-1.26074A.58684.58684,0,0,1,6.65516,9.5988Z" style="fill:#a1afba"/><path d="M7.51649,5.59635A2.46118,2.46118,0,1,1,9.97791,3.13542,2.46376,2.46376,0,0,1,7.51649,5.59635Zm0-4.42236A1.96118,1.96118,0,1,0,9.47791,3.13542,1.96353,1.96353,0,0,0,7.51649,1.174Z" style="fill:#a1afba"/></g></svg>