<svg xmlns="http://www.w3.org/2000/svg" viewBox="0 0 20.85791 17.76246"><title>printer-icon-uc-santa-barbara_1</title><g id="ICONS"><path d="M19.53978,9.2653h-1.8864v1.89737a.21966.21966,0,0,1-.21938.21938H3.42726a.21986.21986,0,0,1-.2203-.21938V9.2653H1.31783a.879.879,0,0,0-.621.25712l-.00092.001a.8763.8763,0,0,0-.25716.621v6.3a.88.88,0,0,0,.87906.8784h18.222a.87631.87631,0,0,0,.621-.25742h.00092a.8771.8771,0,0,0,.25747-.621v-6.3a.8817.8817,0,0,0-.87936-.87906ZM3.75786,16.08174a.21939.21939,0,0,1,0-.43877h13.34a.21939.21939,0,1,1,0,.43877ZM16.31026,4.1201a.21692.21692,0,0,1,.0777.16672l-.00152.0198-.00457,6.6357h.83183V9.04592a.21983.21983,0,0,1,.2203-.21938h2.10578a1.31859,1.31859,0,0,1,1.31813,1.31782v6.3a1.31108,1.31108,0,0,1-.38636.9302l-.00061.001a1.31629,1.31629,0,0,1-.93116.387H1.31783A1.31963,1.31963,0,0,1,0,16.44433v-6.3a1.31506,1.31506,0,0,1,.38423-.92842l.00182-.00182L.387,9.2132V9.21259a1.316,1.316,0,0,1,.93086-.38605H3.42726a.21983.21983,0,0,1,.21938.21938v1.8964h.607V1.31813h0A1.31806,1.31806,0,0,1,5.57174,0h0V.00091H12.085L12.1048,0a.21772.21772,0,0,1,.16667.07709l4.03879,4.043Zm-.362.3861L15.944,10.94232H4.69329V1.31813h0A.88062.88062,0,0,1,5.57174.43877h0V.43785L11.8845.43877v2.7493A1.32121,1.32121,0,0,0,13.20355,4.5062ZM12.32418.74987v2.4382a.88063.88063,0,0,0,.87937.87936h2.43577L12.32418.74987Zm3.67163,11.87932h1.103a.219.219,0,0,1,.21847.21938v1.046a.21885.21885,0,0,1-.21847.21938l-1.10393-.00091a.21828.21828,0,0,1-.21847-.21847l.00091-1.04665a.21889.21889,0,0,1,.21847-.21877Zm.88363.43816v.60879h-.66516v-.60971Z" style="fill:#a1afba;fill-rule:evenodd"/></g></svg>